<mxfile host="app.diagrams.net" modified="2022-06-27T21:18:09.600Z" agent="5.0 (Windows)" etag="G2Ql14lvjzWEsCgKIgjf" version="20.0.3" type="github">
  <diagram id="gKdZTlmEmeAZpFS0FV5C" name="Page-1">
    <mxGraphModel dx="677" dy="354" grid="1" gridSize="10" guides="1" tooltips="1" connect="1" arrows="1" fold="1" page="1" pageScale="1" pageWidth="850" pageHeight="1100" math="0" shadow="0">
      <root>
        <mxCell id="0" />
        <mxCell id="1" parent="0" />
        <mxCell id="eVbXWNusR5E1aaUNYQW5-1" value="" style="endArrow=classic;html=1;rounded=0;" edge="1" parent="1">
          <mxGeometry width="50" height="50" relative="1" as="geometry">
            <mxPoint x="400" y="400" as="sourcePoint" />
            <mxPoint x="400" y="260" as="targetPoint" />
          </mxGeometry>
        </mxCell>
        <mxCell id="eVbXWNusR5E1aaUNYQW5-2" value="" style="endArrow=classic;html=1;rounded=0;" edge="1" parent="1">
          <mxGeometry width="50" height="50" relative="1" as="geometry">
            <mxPoint x="400" y="400" as="sourcePoint" />
            <mxPoint x="280" y="480" as="targetPoint" />
          </mxGeometry>
        </mxCell>
        <mxCell id="eVbXWNusR5E1aaUNYQW5-3" value="" style="endArrow=classic;html=1;rounded=0;" edge="1" parent="1">
          <mxGeometry width="50" height="50" relative="1" as="geometry">
            <mxPoint x="400" y="400" as="sourcePoint" />
            <mxPoint x="520" y="480" as="targetPoint" />
          </mxGeometry>
        </mxCell>
        <mxCell id="eVbXWNusR5E1aaUNYQW5-4" value="Net" style="text;html=1;align=center;verticalAlign=middle;resizable=0;points=[];autosize=1;strokeColor=none;fillColor=none;" vertex="1" parent="1">
          <mxGeometry x="380" y="225" width="40" height="30" as="geometry" />
        </mxCell>
        <mxCell id="eVbXWNusR5E1aaUNYQW5-5" value="Bit Value" style="text;html=1;align=center;verticalAlign=middle;resizable=0;points=[];autosize=1;strokeColor=none;fillColor=none;" vertex="1" parent="1">
          <mxGeometry x="220" y="480" width="70" height="30" as="geometry" />
        </mxCell>
        <mxCell id="eVbXWNusR5E1aaUNYQW5-6" value="Time" style="text;html=1;align=center;verticalAlign=middle;resizable=0;points=[];autosize=1;strokeColor=none;fillColor=none;" vertex="1" parent="1">
          <mxGeometry x="520" y="480" width="50" height="30" as="geometry" />
        </mxCell>
        <mxCell id="eVbXWNusR5E1aaUNYQW5-7" value="Fault Space" style="text;html=1;align=center;verticalAlign=middle;resizable=0;points=[];autosize=1;strokeColor=none;fillColor=none;" vertex="1" parent="1">
          <mxGeometry x="295" y="310" width="90" height="30" as="geometry" />
        </mxCell>
        <mxCell id="eVbXWNusR5E1aaUNYQW5-12" value="" style="verticalLabelPosition=bottom;verticalAlign=top;html=1;shape=mxgraph.basic.polygon;polyCoords=[[0.2,0],[0.8,0],[1,0.25],[1,0.75],[0.75,1],[0.25,1],[0,0.75],[0,0.25]];polyline=0;fillColor=#A8A8A8;gradientColor=none;opacity=40;strokeColor=default;" vertex="1" parent="1">
          <mxGeometry x="350" y="340" width="100" height="100" as="geometry" />
        </mxCell>
      </root>
    </mxGraphModel>
  </diagram>
</mxfile>
